<svg width="105" height="38" fill="none" xmlns="http://www.w3.org/2000/svg"><rect width="105" height="38" rx="10" fill="#fff"/><path d="M36.657 15.264c1.067 0 1.926.32 2.576.96.662.64.992 1.59.992 2.848V24H37.73v-4.544c0-.683-.149-1.19-.448-1.52-.298-.341-.73-.512-1.296-.512-.629 0-1.13.197-1.504.592-.373.384-.56.96-.56 1.728V24h-2.496v-8.608h2.384V16.4c.331-.363.742-.64 1.232-.832a4.193 4.193 0 011.616-.304zm14.357 4.464c0 .032-.016.256-.048.672h-6.512c.117.533.394.955.832 1.264.437.31.981.464 1.632.464.448 0 .842-.064 1.184-.192.352-.139.677-.352.976-.64l1.328 1.44c-.811.928-1.995 1.392-3.552 1.392-.971 0-1.83-.187-2.576-.56-.747-.384-1.323-.912-1.728-1.584-.406-.672-.608-1.435-.608-2.288 0-.843.197-1.6.592-2.272a4.2 4.2 0 011.648-1.584c.704-.384 1.488-.576 2.352-.576.842 0 1.605.181 2.288.544a3.905 3.905 0 011.6 1.568c.394.672.592 1.456.592 2.352zm-4.464-2.576c-.566 0-1.04.16-1.424.48-.384.32-.619.757-.704 1.312h4.24c-.086-.544-.32-.976-.704-1.296-.384-.33-.854-.496-1.408-.496zm19.793-1.76L63.223 24h-2.4l-1.936-5.344-2 5.344h-2.4l-3.104-8.608h2.352l2.032 5.824 2.112-5.824h2.112l2.048 5.824 2.096-5.824h2.208zm3.932 8.736a8.607 8.607 0 01-2.096-.256c-.683-.181-1.227-.405-1.632-.672l.832-1.792c.384.245.848.448 1.392.608a6.03 6.03 0 001.6.224c1.056 0 1.584-.261 1.584-.784 0-.245-.144-.421-.432-.528-.288-.107-.731-.197-1.328-.272a12.81 12.81 0 01-1.744-.368 2.762 2.762 0 01-1.2-.736c-.331-.352-.496-.853-.496-1.504 0-.544.154-1.024.464-1.44.32-.427.778-.757 1.376-.992.608-.235 1.322-.352 2.144-.352.608 0 1.21.07 1.808.208.608.128 1.109.31 1.504.544l-.832 1.776a4.967 4.967 0 00-2.48-.64c-.534 0-.934.075-1.2.224-.267.15-.4.341-.4.576 0 .267.144.453.432.56.288.107.746.208 1.376.304.704.117 1.28.245 1.728.384.448.128.837.368 1.168.72.33.352.496.843.496 1.472 0 .533-.16 1.008-.48 1.424-.32.416-.79.741-1.408.976-.608.224-1.334.336-2.176.336z" fill="#323264"/></svg>